<svg width="300" height="300" viewBox="0 0 100 100" xmlns="http://www.w3.org/2000/svg" xmlns:xlink="http://www.w3.org/1999/xlink" overflow="hidden"><path d="M50.93 34.11C56.254 34.11 60.57 29.794 60.57 24.47 60.57 19.146 56.254 14.83 50.93 14.83 45.606 14.83 41.29 19.146 41.29 24.47 41.2955 29.7917 45.6083 34.1045 50.93 34.11ZM50.93 18.83C54.0449 18.83 56.57 21.3551 56.57 24.47 56.57 27.5849 54.0449 30.11 50.93 30.11 47.8151 30.11 45.29 27.5849 45.29 24.47 45.29 21.3535 47.8135 18.8255 50.93 18.82Z" stroke="#000000" stroke-width="0.666667"/><path d="M89.09 54 89.09 7.81C89.09 6.70543 88.1946 5.81 87.09 5.81L4.27 5.81C3.16543 5.81 2.27 6.70543 2.27 7.81L2.27 72.35C2.27 73.4546 3.16543 74.35 4.27 74.35L53 74.35C54.4574 86.6628 65.6204 95.4629 77.9333 94.0055 90.2461 92.548 99.0462 81.385 97.5887 69.0722 96.8835 63.1144 93.823 57.6867 89.09 54ZM6.27 9.81 85.09 9.81 85.09 51.55C82.0333 50.0525 78.6738 49.2759 75.27 49.28 74.71 49.28 74.16 49.28 73.61 49.35L61.89 38C61.1655 37.3015 60.0349 37.2501 59.25 37.88L50.37 45 37.48 30.87C37.1001 30.4547 36.5628 30.2188 36 30.22 35.4475 30.2252 34.9194 30.448 34.53 30.84L11.05 55.57C10.2878 56.3695 10.3181 57.6355 11.1176 58.3976 11.4902 58.7528 11.9853 58.9506 12.5 58.95L56.84 58.95C54.4818 62.3126 53.0977 66.261 52.84 70.36L6.27 70.36ZM59.84 55.45 53.07 48 60.38 42.15 68.78 50.25C65.4361 51.2643 62.3749 53.0448 59.84 55.45ZM54 54.94 17.16 54.94 36 35.15ZM75.3 90.19C65.1048 90.2066 56.8266 81.9552 56.81 71.76 56.7935 61.5649 65.0448 53.2866 75.24 53.2701 85.4352 53.2535 93.7134 61.5049 93.73 71.7 93.73 71.7134 93.73 71.7267 93.73 71.74 93.7577 81.902 85.5422 90.1624 75.3802 90.19 75.3435 90.1901 75.3067 90.1901 75.27 90.19Z" stroke="#000000" stroke-width="0.666667"/><path d="M87.55 69.74 77.27 69.74 77.27 59.47 73.27 59.47 73.27 69.74 63 69.74 63 73.74 73.27 73.74 73.27 84.01 77.27 84.01 77.27 73.74 87.55 73.74 87.55 69.74Z" stroke="#000000" stroke-width="0.666667"/></svg>