<?xml version="1.0" encoding="UTF-8"?>
<svg width="1292.3" height="1059" version="1.1" viewBox="0 0 1211.5396 992.79936" xmlns="http://www.w3.org/2000/svg">
 <g transform="translate(0 -59.563)" fill="#2e3436">
  <path d="m4.0407 288.36c-2.239 0-4.0407 1.8051-4.0407 4.0441v118.94c0 2.239 1.8017 4.0407 4.0407 4.0407h12.047v-49.957h94.85v49.957h12.047c2.239 0 4.0407-1.8017 4.0407-4.0407v-108.85l-12.091-14.139h-17.483v46.249h-67.876v-46.249zm67.783 5.6254v30.556h14.173v-30.556z"/>
  <path d="m157.41 288.36c-2.2391 0-4.0407 1.8051-4.0407 4.0442v118.94c0 2.239 1.8017 4.0407 4.0407 4.0407h12.047v-49.957h35.207l12.218-15.539 12.218 15.539h35.207v49.957h12.047c2.239 0 4.0407-1.8017 4.0407-4.0407v-108.85l-12.091-14.139h-17.483v46.249h-67.876v-46.249zm67.783 5.6254v30.556h14.173v-30.556zm-8.3112 70.109-22.937 29.17h16.509v21.284c0 0.43435 0.35115 0.7855 0.78552 0.7855h11.289c0.43435 0 0.78551-0.35115 0.78551-0.7855v-21.284h16.509z"/>
  <path d="m310.78 288.31c-2.239 0-4.0407 1.8051-4.0407 4.0442v118.94c0 2.239 1.8017 4.0407 4.0407 4.0407h12.047v-49.957h30.048v-11.518h34.754v11.518h30.048v49.957h12.047c2.239 0 4.0407-1.8017 4.0407-4.0407v-108.85l-12.091-14.139h-17.483v46.249h-67.876v-46.249zm67.783 5.6254v30.556h14.173v-30.556zm-13.957 70.222c-0.43435 0-0.78551 0.34772-0.78551 0.78207v21.284h-16.509l22.937 29.17 22.941-29.17h-16.509v-21.284c0-0.43435-0.35116-0.78207-0.78552-0.78207z"/>
  <path d="m464.15 288.36c-2.239 0-4.0407 1.8051-4.0407 4.0442v118.94c0 2.239 1.8017 4.0407 4.0407 4.0407h12.047v-49.957h31.636v-16.849h31.578v16.849h31.636v49.957h12.047c2.239 0 4.0407-1.8017 4.0407-4.0407v-108.85l-12.091-14.139h-17.483v46.249h-67.876v-46.249zm67.783 5.6254v30.556h14.173v-30.556zm-13.542 71.203c-0.49691 0-0.89869 0.39835-0.89869 0.89527v17.343h-17.041c-0.66256 0-1.1971 0.53455-1.1971 1.1971v9.8651c0 0.66256 0.53456 1.1971 1.1971 1.1971h17.041v17.339c0 0.49692 0.40178 0.8987 0.89869 0.8987h10.462c0.49691 0 0.89868-0.40178 0.89868-0.8987v-17.339h17.041c0.66255 0 1.1971-0.53456 1.1971-1.1971v-9.8651c0-0.66257-0.53457-1.1971-1.1971-1.1971h-17.041v-17.343c0-0.49692-0.40177-0.89527-0.89868-0.89527z"/>
  <path d="m617.52 288.36c-2.239 0-4.0407 1.8051-4.0407 4.0442v118.94c0 2.239 1.8017 4.0407 4.0407 4.0407h12.047v-49.957h10.28l-0.69633-0.69632c-0.63525-0.63526-0.63095-1.6595 4e-3 -2.2948l13.374-13.374c0.63526-0.63526 1.6595-0.63868 2.2948-4e-3l16.365 16.369h11.608l15.984-15.981c0.847-0.84702 2.2127-0.84702 3.0597 0l12.613 12.609c0.84705 0.84705 0.84701 2.2161 0 3.0631l-0.30871 0.30871h10.273v49.957h12.047c2.239 0 4.0407-1.8017 4.0407-4.0407v-108.85l-12.091-14.139h-17.483v46.249h-67.876v-46.249h-25.534zm67.783 5.6254v30.556h14.173v-30.556zm-21.209 78.674c-0.2293 6.1e-4 -0.45889 0.0884-0.63458 0.26412l-7.3988 7.3988c-0.3507 0.35135-0.35137 0.91779 0 1.2692l12.263 12.263-12.05 12.05c-0.4685 0.46851-0.46848 1.2226 0 1.6911l6.9769 6.9769c0.46851 0.46851 1.2226 0.46849 1.6911 0l12.05-12.05 12.263 12.263c0.35139 0.35137 0.91779 0.35137 1.2692 0l7.3988-7.3988c0.35138-0.35137 0.35139-0.92119 0-1.2726l-12.263-12.259 12.05-12.05c0.46848-0.4685 0.46851-1.2226 0-1.6911l-6.9735-6.9769c-0.4685-0.4685-1.226-0.4685-1.6945 0l-12.05 12.05-12.263-12.263c-0.1757-0.17567-0.40529-0.26473-0.63458-0.26412z"/>
  <path d="m770.88 288.51c-2.239 0-4.0407 1.8051-4.0407 4.0442v118.94c0 2.239 1.8017 4.0407 4.0407 4.0407h12.047v-49.957h14.221v-11.844h66.408v11.844h14.221v49.957h12.047c2.239 0 4.0407-1.8017 4.0407-4.0407v-108.85l-12.091-14.139h-17.483v46.249h-67.876v-46.249zm67.783 5.6254v30.556h14.173v-30.556zm-30.01 91.016c-0.90175 0-1.6259 0.72757-1.6259 1.6293v9.186c0 0.90176 0.72413 1.6259 1.6259 1.6259h43.395c0.90176 0 1.6293-0.72413 1.6293-1.6259v-9.186c0-0.90175-0.72757-1.6293-1.6293-1.6293z"/>
  <path d="m924.25 287.27c-2.239 0-4.0407 1.8051-4.0407 4.0442v118.94c0 2.239 1.8017 4.0407 4.0407 4.0407h12.047v-49.957h17.123c4.1221-9.4754 13.574-16.135 24.532-16.135 10.957 0 20.405 6.6622 24.529 16.135h28.666v49.957h12.047c2.239 0 4.0407-1.8017 4.0407-4.0407v-108.85l-12.091-14.139h-17.483v46.249h-67.876v-46.249zm67.783 5.6254v30.556h14.173v-30.556zm-12.249 75.316c-10.052 0-18.259 8.2068-18.259 18.259 0 10.052 8.2068 18.259 18.259 18.259 3.4137 0 6.6118-0.94962 9.3506-2.5932l12.297 11.566c0.958 0.90107 2.4536 0.85489 3.3547-0.1029l0.4871-0.52138c0.9011-0.95792 0.8551-2.4536-0.1029-3.3547l-11.793-11.093c2.8961-3.2332 4.665-7.4977 4.665-12.16 0-10.052-8.2068-18.259-18.259-18.259zm0 5.2996c7.1888 0 12.959 5.7703 12.959 12.959 0 7.1888-5.7704 12.959-12.959 12.959-7.1888 0-12.959-5.7703-12.959-12.959 0-7.1888 5.7703-12.959 12.959-12.959z"/>
  <path d="m50.361 489.51c-27.727 0-50.361 22.635-50.361 50.361 0 27.727 22.635 50.354 50.361 50.354 9.4121 0 18.206-2.6525 25.759-7.1824l33.952 31.938c2.6423 2.4855 6.772 2.359 9.2576-0.28333l1.34-1.4319c2.4855-2.6423 2.359-6.772-0.28344-9.2576l-32.566-30.629c7.9893-8.9185 12.902-20.647 12.902-33.508 0-27.727-22.635-50.361-50.361-50.361zm0 14.61c19.829 0 35.751 15.922 35.751 35.751s-15.922 35.744-35.751 35.744-35.744-15.914-35.744-35.744c0-19.829 15.914-35.751 35.744-35.751z" color="#000000" color-rendering="auto" image-rendering="auto" shape-rendering="auto" solid-color="#000000" style="isolation:auto;mix-blend-mode:normal;text-decoration-color:#000000;text-decoration-line:none;text-decoration-style:solid;text-indent:0;text-transform:none;white-space:normal"/>
  <path d="m199.16 489.51c-27.727 0-50.361 22.635-50.361 50.361 0 27.727 22.635 50.355 50.361 50.355 9.4121 0 18.208-2.6528 25.76-7.1828l33.952 31.938c2.6423 2.4855 6.7725 2.3576 9.258-0.2847l1.3378-1.4304c2.4855-2.6423 2.3612-6.7725-0.28126-9.258l-32.566-30.628c7.9893-8.9185 12.901-20.648 12.901-33.509 0-27.727-22.635-50.361-50.361-50.361zm0 14.609c19.829 0 35.752 15.923 35.752 35.752s-15.923 35.742-35.752 35.742-35.742-15.913-35.742-35.742 15.913-35.752 35.742-35.752zm-3.9207 19.38c-0.36261 0-0.65516 0.29596-0.65516 0.65859v12.65h-12.434c-0.48348 0-0.87468 0.3912-0.87468 0.87469v7.2033c0 0.4835 0.3912 0.86783 0.87468 0.86783h12.434v12.657c0 0.36263 0.29255 0.65174 0.65516 0.65174h7.6389c0.36263 0 0.65173-0.28911 0.65173-0.65174v-12.657h12.438c0.48351 0 0.87127-0.38433 0.87127-0.86783v-7.2033c0-0.48349-0.38776-0.87469-0.87127-0.87469h-12.438v-12.65c0-0.36263-0.2891-0.65859-0.65173-0.65859z" color="#000000" color-rendering="auto" image-rendering="auto" shape-rendering="auto" solid-color="#000000" style="isolation:auto;mix-blend-mode:normal;text-decoration-color:#000000;text-decoration-line:none;text-decoration-style:solid;text-indent:0;text-transform:none;white-space:normal"/>
  <path d="m347.96 489.51c-27.727 0-50.361 22.635-50.361 50.361 0 27.727 22.635 50.355 50.361 50.355 9.4122 0 18.208-2.6528 25.76-7.1828l33.952 31.938c2.6423 2.4855 6.7724 2.3576 9.258-0.2847l1.3378-1.4304c2.4855-2.6423 2.3612-6.7725-0.28126-9.258l-32.566-30.628c7.9893-8.9186 12.901-20.648 12.901-33.509 0-27.727-22.635-50.361-50.361-50.361zm0 14.609c19.829 0 35.752 15.923 35.752 35.752s-15.923 35.742-35.752 35.742-35.742-15.913-35.742-35.742 15.913-35.752 35.742-35.752zm-17.964 32.624c-0.74422 0-1.3446 0.6004-1.3446 1.3446v7.5806c0 0.74422 0.60039 1.3412 1.3446 1.3412h35.814c0.74422 0 1.3412-0.59697 1.3412-1.3412v-7.5806c0-0.74422-0.59696-1.3446-1.3412-1.3446z" color="#000000" color-rendering="auto" image-rendering="auto" shape-rendering="auto" solid-color="#000000" style="isolation:auto;mix-blend-mode:normal;text-decoration-color:#000000;text-decoration-line:none;text-decoration-style:solid;text-indent:0;text-transform:none;white-space:normal"/>
  <path d="m513.26 616.76c8.1225 0 43.705-38.679 58.631-63.531 4.2955-7.152 8.3521-15.049 8.3546-23.721l-4e-3 -0.52155c-0.2777-20.383-16.495-36.694-36.267-36.478-12.67 0.1542-24.322 7.1837-30.658 18.495-6.471-11.551-18.472-18.617-31.41-18.495-19.772 0.21546-35.651 16.876-35.512 37.26 0.0599 8.3618 3.8309 16.038 7.9594 22.964 14.94 25.061 50.709 64.027 58.906 64.027"/>
  <path d="m644.8 487.07c-21.285 0.23195-38.354 18.195-38.205 40.002 0.0657 9.1683 4.1339 17.281 8.3421 24.34 7.6415 12.818 20.376 28.869 32.315 41.858 5.9699 6.4944 11.73 12.208 16.602 16.365 2.4358 2.0787 4.6446 3.769 6.6202 4.9977 1.9756 1.2288 3.6048 2.1336 5.7078 2.1336 2.0955 0 3.7141-0.90313 5.6769-2.1233 1.9628-1.2201 4.1541-2.8967 6.5756-4.96 4.843-4.1266 10.572-9.7968 16.513-16.242 11.881-12.89 24.565-28.819 32.199-41.529 4.3614-7.2617 8.7406-15.599 8.7435-25.119v-0.0105l-4e-3 -0.54196v-7e-3c-0.29702-21.806-17.733-39.397-39.018-39.165h-4e-3c-12.331 0.15016-23.526 6.5703-30.631 16.705-7.2704-10.364-18.814-16.824-31.43-16.705h-4e-3zm0.0548 5.4436c11.931-0.11275 23.008 6.3942 29.009 17.106l2.3771 4.2397 2.3737-4.2397c5.8754-10.489 16.631-16.963 28.312-17.106 18.259-0.19887 33.258 14.835 33.516 33.794l4e-3 0.48365c-2e-3 7.8234-3.7386 15.278-7.9682 22.32-7.2924 12.142-19.862 27.981-31.533 40.644-5.8359 6.3312-11.46 11.883-16.039 15.786-2.2898 1.9511-4.3244 3.4876-5.9204 4.4798-1.5961 0.99218-2.8673 1.3-2.8024 1.3 0.0537 0-1.2254-0.31024-2.8333-1.3103-1.6079-1.0001-3.6579-2.5515-5.9616-4.5175-4.6074-3.9319-10.261-9.5258-16.125-15.906-11.729-12.76-24.348-28.72-31.647-40.963-4.0487-6.7915-7.5231-14.034-7.5772-21.589-0.12961-18.959 14.559-34.32 32.816-34.521z" color="#000000" color-rendering="auto" image-rendering="auto" shape-rendering="auto" solid-color="#000000" style="isolation:auto;mix-blend-mode:normal;text-decoration-color:#000000;text-decoration-line:none;text-decoration-style:solid;text-indent:0;text-transform:none;white-space:normal"/>
  <path transform="matrix(.76369 .34408 -.37103 .76494 521.44 299.63)" d="m541.09 171.13c-1.4262 2.4702-54.321-4.8737-56.927-3.7135s-32.542 45.383-35.332 44.79c-2.7901-0.59305-12.151-53.168-14.06-55.288-1.9086-2.1197-53.218-16.925-53.516-19.762-0.29816-2.8368 46.811-27.986 48.238-30.456 1.4262-2.4702-0.34849-55.843 2.2573-57.003 2.6058-1.1602 41.082 35.872 43.872 36.465 2.7901 0.59304 53.002-17.588 54.911-15.468s-21.421 50.156-21.123 52.993c0.29816 2.8368 33.106 44.973 31.679 47.443z"/>
  <path d="m990.53 482.03c-0.25288-0.1152-0.57678-0.20196-1.0136-0.20361-0.8736-4e-3 -1.325 0.33686-1.636 0.56637-0.31107 0.22952-0.51569 0.44459-0.71637 0.67125-0.40136 0.45333-0.76003 0.96313-1.1636 1.5821-0.80713 1.2379-1.7492 2.8933-2.8149 4.8742-2.1315 3.9617-4.7328 9.1971-7.3188 14.471-2.5861 5.2736-5.1549 10.583-7.1915 14.639-1.0183 2.028-1.9061 3.745-2.5788 4.9606-0.33597 0.60713-0.62055 1.0923-0.81777 1.3974-4.9e-4 1.2e-4 -2.3e-4 1e-3 -7.2e-4 1e-3 -4.8e-4 1.2e-4 -1e-3 -7.7e-4 -1e-3 -6.7e-4 -0.35476 0.0799-0.90982 0.18116-1.597 0.28724-1.3743 0.21215-3.2938 0.45212-5.551 0.7086-4.5143 0.51293-10.39 1.0937-16.239 1.7026-5.8483 0.60883-11.666 1.2452-16.124 1.8796-2.2292 0.31718-4.1101 0.63077-5.5517 0.96129-0.72085 0.16527-1.3234 0.32558-1.8878 0.54581-0.28219 0.11011-0.5549 0.22933-0.87778 0.44195-0.32288 0.21261-0.79824 0.51746-1.0959 1.3377-0.2977 0.8202-0.12258 1.3388-7e-3 1.6957 0.11626 0.35685 0.25474 0.6094 0.40539 0.8617 0.3013 0.50459 0.67206 0.9873 1.1321 1.5405 0.92015 1.1064 2.197 2.456 3.7455 4.0142 3.097 3.1163 7.2627 7.0304 11.47 10.943 4.2074 3.9121 8.455 7.8191 11.675 10.873 1.6099 1.5268 2.9647 2.8427 3.9086 3.8164 0.47197 0.48684 0.84254 0.8918 1.0699 1.1629-1.1e-4 9.5e-4 8.8e-4 1e-3 7.7e-4 2e-3 -0.0427 0.35591-0.13347 0.9044-0.26296 1.5801-0.25899 1.3514-0.67436 3.224-1.1883 5.4177-1.0279 4.3873-2.4497 10.074-3.835 15.742-1.3853 5.6681-2.7329 11.315-3.625 15.684-0.44603 2.1844-0.78018 4.0399-0.94786 5.4878-0.0838 0.72395-0.13014 1.3359-0.10836 1.9283 0.0105 0.29616 0.0323 0.58659 0.1282 0.94981 0.0959 0.36321 0.23025 0.89459 0.91985 1.4048 0.68961 0.5102 1.2482 0.4908 1.6311 0.48182 0.38288-9e-3 0.67281-0.0673 0.96661-0.13804 0.58757-0.14155 1.1759-0.3542 1.8638-0.63124 1.3758-0.55411 3.1074-1.375 5.1301-2.3928 4.0455-2.0357 9.2193-4.8519 14.406-7.7078 5.1864-2.8558 10.382-5.7508 14.408-7.9195 2.0132-1.0844 3.7374-1.9882 4.9934-2.6019 0.62803-0.30687 1.1427-0.54262 1.4804-0.68017 5.5e-4 -2.1e-4 9.7e-4 8.8e-4 1e-3 6.6e-4 0.3284 0.14015 0.82679 0.37821 1.4339 0.68975 1.2142 0.62304 2.8778 1.5408 4.8173 2.6401 3.879 2.1986 8.8777 5.1316 13.87 8.0259 4.9921 2.8942 9.9745 5.7488 13.882 7.8145 1.9535 1.0328 3.6297 1.8668 4.9677 2.4312 0.669 0.28219 1.2414 0.499 1.8192 0.64487 0.289 0.0729 0.5759 0.13401 0.958 0.14577 0.3822 0.0123 0.94 0.0348 1.6639-0.47009 0.7239-0.50488 0.8932-1.0342 1.0136-1.3966 0.1205-0.36239 0.1621-0.65287 0.1931-0.94888 0.062-0.59203 0.055-1.2054 0.02-1.9298-0.07-1.4488-0.2777-3.3063-0.576-5.4935-0.5968-4.3744-1.5638-10.028-2.5658-15.706-1.0021-5.6771-2.0385-11.374-2.7698-15.768-0.3657-2.1969-0.6547-4.0712-0.8223-5.4242-0.084-0.6765-0.1369-1.2268-0.1557-1.5829 0-6.5e-4 8e-4 -8.3e-4 8e-4 -1e-3 0.2456-0.26932 0.6438-0.67062 1.1485-1.1538 1.0094-0.96632 2.454-2.2721 4.1666-3.7863 3.4253-3.0285 7.9343-6.9017 12.405-10.781 4.4706-3.8794 8.8993-7.7622 12.206-10.854 1.6534-1.5461 3.0213-2.8862 4.016-3.9853 0.4973-0.54956 0.8994-1.0278 1.2347-1.53 0.1677-0.25109 0.3239-0.50364 0.4641-0.85952 0.1403-0.35589 0.3503-0.87315 0.108-1.6954-0.2422-0.82223-0.6946-1.1308-1.003-1.3458s-0.574-0.33389-0.8487-0.4461c-0.5493-0.22443-1.1421-0.39232-1.8516-0.563-1.419-0.34132-3.2775-0.668-5.4846-1.0019-4.4144-0.66784-10.188-1.3463-15.994-1.9991-5.8057-0.65283-11.641-1.278-16.12-1.8249-2.2392-0.27342-4.1428-0.52899-5.5025-0.75147-0.6798-0.11117-1.227-0.21621-1.5762-0.29875-4e-4 -5.5e-4 0-1.5e-4 0-6.9e-4 -0.1765-0.30652-0.4287-0.79378-0.7239-1.4039-0.5904-1.2203-1.3607-2.9436-2.2417-4.9787-1.7621-4.0702-3.9736-9.3981-6.2028-14.69-2.2291-5.2918-4.474-10.544-6.3373-14.521-0.93165-1.9884-1.7622-3.6519-2.4855-4.8956-0.36166-0.62183-0.68639-1.1342-1.057-1.5904-0.18532-0.22812-0.37634-0.44408-0.67181-0.6759-0.1477-0.11592-0.32866-0.25977-0.58155-0.37487zm-1.2083 5.5488c0.56466 1.0222 1.208 2.2589 1.9846 3.9162 1.8104 3.8637 4.0472 9.0933 6.2703 14.371 2.2232 5.2776 4.4346 10.607 6.2188 14.728 0.8921 2.0606 1.6744 3.8156 2.3147 5.139 0.3202 0.66175 0.6021 1.2122 0.8658 1.6699 0.2637 0.45768 0.246 0.73497 1.084 1.355 0.838 0.61999 1.1041 0.52724 1.6256 0.65049 0.5215 0.12329 1.1409 0.23768 1.8782 0.35831 1.4747 0.24129 3.4121 0.4997 5.6794 0.77656 4.5346 0.5537 10.371 1.178 16.161 1.829 5.7901 0.65107 11.537 1.3292 15.826 1.9781 1.8399 0.27837 3.2312 0.54551 4.3894 0.79797-0.8259 0.87545-1.8373 1.8972-3.2157 3.1862-3.2128 3.0042-7.6197 6.8718-12.078 10.741-4.4585 3.8689-8.9705 7.7431-12.439 10.81-1.7341 1.5332-3.2054 2.8602-4.3002 3.9082-0.5475 0.52404-0.9996 0.97578-1.3663 1.3779-0.3667 0.40214-0.6384 0.47699-1.0002 1.4737-0.3617 0.9967-0.196 1.2166-0.1682 1.7484 0.028 0.53172 0.09 1.1521 0.1813 1.8858 0.1818 1.4674 0.4778 3.3752 0.8481 5.5997 0.7404 4.449 1.7783 10.147 2.7776 15.808 0.9994 5.6618 1.9597 11.293 2.5395 15.543 0.2488 1.8236 0.3833 3.2213 0.4654 4.3951-1.0752-0.48119-2.3435-1.0888-3.9724-1.95-3.7959-2.007-8.7572-4.8461-13.736-7.7325-4.9787-2.8864-9.9775-5.8211-13.905-8.0471-1.9638-1.1131-3.6563-2.0474-4.9733-2.7232-0.65849-0.33788-1.2203-0.61077-1.7107-0.8199-0.4903-0.20913-0.63955-0.43838-1.7011-0.44238-1.0616-4e-3 -1.2275 0.22497-1.7318 0.43037-0.50432 0.20537-1.0835 0.47237-1.7646 0.80518-1.3623 0.66565-3.1172 1.5874-5.1557 2.6854-4.077 2.1959-9.2722 5.0933-14.445 7.9415-5.1724 2.8481-10.325 5.6484-14.255 7.6262-1.6863 0.84854-2.9948 1.4455-4.1022 1.9184 0.1614-1.1728 0.38911-2.5693 0.76098-4.3905 0.86672-4.2446 2.2067-9.8652 3.5883-15.518 1.3815-5.6528 2.8034-11.341 3.8442-15.783 0.52039-2.2211 0.94544-4.1278 1.2264-5.5935 0.14049-0.73285 0.24619-1.3516 0.30988-1.883 0.0638-0.53138 0.243-0.74981-0.0513-1.749-0.29433-0.99916-0.56124-1.077-0.9007-1.4817-0.33948-0.40479-0.76019-0.85887-1.2721-1.3869-1.0238-1.0561-2.4054-2.395-4.0355-3.9409-3.2602-3.0918-7.5087-6.9992-11.705-10.901-4.1961-3.9016-8.3404-7.8004-11.349-10.828-1.2908-1.2988-2.2337-2.3273-3.0002-3.2087 1.1749-0.24364 2.5843-0.50114 4.4426-0.76556 4.3316-0.61633 10.122-1.2509 15.954-1.858 5.8325-0.6072 11.71-1.1879 16.281-1.7072 2.2854-0.25968 4.2411-0.50265 5.7317-0.73276 0.74528-0.11503 1.3716-0.22567 1.9012-0.34494 0.5297-0.11925 0.78897-0.0237 1.6686-0.63725 0.87966-0.61352 0.87998-0.89041 1.1745-1.346 0.2945-0.45555 0.61463-1.0041 0.9794-1.6632 0.72956-1.3183 1.6312-3.068 2.6622-5.1214 2.0621-4.1068 4.6313-9.4186 7.2104-14.678s5.1704-10.469 7.2412-14.318c0.88833-1.6511 1.6146-2.883 2.2482-3.9007z" color="#000000" color-rendering="auto" image-rendering="auto" shape-rendering="auto" solid-color="#000000" style="isolation:auto;mix-blend-mode:normal;text-decoration-color:#000000;text-decoration-line:none;text-decoration-style:solid;text-indent:0;text-transform:none;white-space:normal"/>
  <path d="m69.648 686.12-34.824 33.975-34.824 33.975h20.843v60.194h36.622v-35.979h24.361v35.979h36.626v-60.194h20.84l-34.82-33.975z"/>
  <path d="m183.89 705.6c0.94824-0.94822 2.4752-0.95476 3.4234-5e-3l33.095 33.095 32.519-32.519c1.2643-1.2643 3.3046-1.2643 4.5689 7e-5l18.826 18.825c1.2644 1.2644 1.2643 3.3046 0 4.5689l-32.519 32.519 33.089 33.089c0.94829 0.9483 0.94826 2.4817 0 3.43l-19.964 19.965c-0.94827 0.94826-2.4817 0.94826-3.43 0l-33.089-33.089-32.519 32.519c-1.2643 1.2644-3.3045 1.2644-4.5689 0l-18.826-18.825c-1.2643-1.2643-1.2644-3.3046-5e-5 -4.5689l32.519-32.519-33.095-33.095c-0.94826-0.94824-0.94172-2.4752 5e-3 -3.4234l19.965-19.965z"/>
  <path d="m394.16 702.02c-1.4729 0.28031-2.5032 0.91402-3.509 1.4715-1.0058 0.5575-1.8145 1.0736-1.8145 1.0736l-0.41848 0.27097-48.42 68.596c-1.9385 2.7462-1.4112 6.1079-0.20924 8.7949 1.202 2.687 3.1249 5.0389 5.4574 6.5104 2.2833 1.4404 5.1158 2.0966 7.9374 1.9929 2.8215-0.1038 5.8432-1.0225 7.6527-3.6017l41.337-58.923-4.1676-2.9259-41.34 58.923c-0.52237 0.7446-1.8569 1.3707-3.6668 1.4372-1.8099 0.0666-3.8848-0.48149-5.0355-1.2074-1.1997-0.75685-2.7459-2.54-3.5262-4.2843-0.78031-1.7443-0.74779-3.1108-0.27785-3.7766l47.823-67.752c0.23528-0.14717 0.50695-0.32741 1.1354-0.67574 0.84497-0.46836 2.0254-0.92889 1.9929-0.92271 0.13084-0.0249 0.96418-0.0176 1.619 0.0788 0.41946 0.0616 0.53595 0.0938 0.73406 0.13717l15.346 10.812c0.0277 0.0204 0.66535 0.4889 1.4132 1.156 0.76388 0.68135 1.554 1.6989 1.5641 1.7219-0.0601-0.13593 0.14524 0.87436 0.13716 1.6774-5e-3 0.46742-0.0237 0.58256-0.0446 0.85066l-61.197 85.503c-0.99185 0.10801-7.0646 0.77162-14.283 1.4269-3.8928 0.35339-7.8271 0.67586-10.839 0.84382-1.454 0.0811-2.6641 0.12154-3.5399 0.12013-0.13347-0.70655-0.27699-1.5846-0.42534-2.727-0.3389-2.6098-0.68334-6.0803-0.98789-9.5221-0.56981-6.4398-0.94113-11.998-0.99475-12.791l49.977-71.296-4.1711-2.9259-51.017 72.781 0.0616 0.8987s0.45478 6.8272 1.0702 13.782c0.30771 3.4776 0.65574 6.9853 1.0119 9.7279 0.17808 1.3713 0.3553 2.5432 0.54882 3.485 0.0968 0.47088 0.19142 0.87959 0.3293 1.2932 0.13786 0.41357-0.0896 0.8483 1.2108 1.746 1.0758 0.74261 1.344 0.53432 1.7871 0.57968 0.44311 0.0453 0.9052 0.0587 1.4407 0.0618 1.0709 5e-3 2.4164-0.0432 3.979-0.13031 3.1252-0.17422 7.0976-0.49793 11.021-0.85411 7.847-0.71237 15.494-1.5504 15.494-1.5504l1.132-0.12346 63.348-88.501 0.072-0.66545s0.0989-0.88246 0.10976-1.962c0.0105-1.0796 0.0871-2.2938-0.57285-3.7869-0.73028-1.6521-1.863-2.599-2.8333-3.4645s-1.8351-1.4956-1.8351-1.4956l-0.0176-0.014-16.201-11.409-0.46308-0.11661s-0.71595-0.17863-1.6259-0.31215c-0.90994-0.13348-2.0006-0.28697-3.3101-0.0378z" color="#000000" color-rendering="auto" fill-rule="evenodd" image-rendering="auto" shape-rendering="auto" solid-color="#000000" style="isolation:auto;mix-blend-mode:normal;text-decoration-color:#000000;text-decoration-line:none;text-decoration-style:solid;text-indent:0;text-transform:none;white-space:normal"/>
  <path d="m503.21 702.99c-0.82387 0-1.4887 0.66138-1.4887 1.4852v40.373h-31.317l43.508 55.328 43.515-55.328h-31.314v-40.373c0-0.82387-0.66823-1.4852-1.4921-1.4852zm-49.936 75.847v40.428h121.28v-40.428h-14.516v28.649h-92.254v-28.649z"/>
  <path d="m674.39 702.74-43.508 55.332h31.317v40.369c0 0.82387 0.66483 1.4852 1.4887 1.4852h21.411c0.82389 0 1.4921-0.66138 1.4921-1.4852v-40.369h31.314zm-60.638 77.762v40.428h121.28v-40.428h-14.516v28.649h-92.254v-28.649z"/>
  <path d="m876.18 759.01a14.365 14.365 0 0 0 -14.362 14.365 14.365 14.365 0 0 0 14.362 14.365 14.365 14.365 0 0 0 14.365 -14.365 14.365 14.365 0 0 0 -14.365 -14.365zm-75.017 0.3533a14.365 14.365 0 0 0 -14.365 14.362 14.365 14.365 0 0 0 14.365 14.365 14.365 14.365 0 0 0 14.362 -14.365 14.365 14.365 0 0 0 -14.362 -14.362zm37.509 0.34988a14.365 14.365 0 0 0 -14.365 14.362 14.365 14.365 0 0 0 14.365 14.365 14.365 14.365 0 0 0 14.365 -14.365 14.365 14.365 0 0 0 -14.365 -14.362z"/>
  <path d="m949.61 733.26c-3.2198 0-5.8141 2.5909-5.8141 5.8107v4.4077c0 3.2198 2.5943 5.8107 5.8141 5.8107h81.24c3.2198 0 5.8107-2.5909 5.8107-5.8107v-4.4077c0-3.2198-2.5909-5.8107-5.8107-5.8107zm0.62087 29.973c-3.5638 0-6.435 2.8712-6.435 6.435v3.166c0 3.5638 2.8712 6.4315 6.435 6.4315h79.377c3.5638 0 6.4315-2.8677 6.4315-6.4315v-3.166c0-3.5638-2.8677-6.435-6.4315-6.435zm-0.62087 29.976c-3.2198 0-5.8141 2.5909-5.8141 5.8107v4.4078c0 3.2198 2.5943 5.8107 5.8141 5.8107h81.24c3.2198 0 5.8107-2.5909 5.8107-5.8107v-4.4078c0-3.2198-2.5909-5.8107-5.8107-5.8107z"/>
  <path d="m343.54 913.16v14.621c-16.931 0.0441-38.105 0.0973-38.105 0.0973l-0.22557 8.6865s38.707 0.27042 58.06 0.25985c20.11-0.0105 60.328-0.34545 60.328-0.34545l0.157-8.7927s-22.43 0.0123-40.374 0.0267v-14.553h-39.841zm6.9926 6.3215h25.852v8.2377c-5.4991 5e-3 -8.528 2e-3 -12.792 7e-3 -4.3534 7e-3 -7.4101 0.019-13.06 0.0327v-8.279zm-29.288 22.596c-3.4383 0-6.208 2.4986-6.208 5.604v93.762c0 3.1054 2.7698 5.607 6.208 5.607h86.478c3.4383 0 6.2048-2.5016 6.2048-5.607v-93.762c0-3.1054-2.7665-5.604-6.2048-5.604zm10.308 9.1707h2.7624c4.6886 0 8.4637 3.4096 8.4637 7.6442v74.399c0 4.2346-3.7752 7.6442-8.4637 7.6442h-2.7624c-4.6886 0-8.4638-3.4096-8.4638-7.6442v-74.399c0-4.2346 3.7752-7.6442 8.4638-7.6442zm31.547 0h2.7624c4.6886 0 8.4637 3.4096 8.4637 7.6442v74.399c0 4.2346-3.7752 7.6442-8.4637 7.6442h-2.7624c-4.6886 0-8.4638-3.4096-8.4638-7.6442v-74.399c0-4.2346 3.7752-7.6442 8.4638-7.6442zm31.55 0h2.7624c4.6886 0 8.4638 3.4096 8.4638 7.6442v74.399c0 4.2346-3.7752 7.6442-8.4638 7.6442h-2.7624c-4.6886 0-8.4637-3.4096-8.4637-7.6442v-74.399c0-4.2346 3.7752-7.6442 8.4637-7.6442z"/>
  <path d="m62.132 920.48c-1.0841 0.0269-2.169 0.0825-3.2518 0.16456-10.395 0.78876-20.678 4.1272-29.866 10.098-24.503 15.923-35.057 46.58-25.548 74.211 9.5095 27.632 36.695 45.299 65.807 42.77s52.842-24.619 57.445-53.476l-14.928-2.3805c-3.5223 22.084-21.548 38.863-43.827 40.798-22.279 1.9352-42.926-11.486-50.204-32.631-7.2773-21.146 0.7389-44.433 19.49-56.618 18.699-12.152 43.147-10.061 59.513 5.0629l-14.63 16.262 24.344 2.7167 24.347 2.7167-5.2687-23.922-5.2653-23.925-13.422 14.921c-12.487-11.466-28.616-17.171-44.736-16.77z" color="#000000" color-rendering="auto" image-rendering="auto" shape-rendering="auto" solid-color="#000000" style="isolation:auto;mix-blend-mode:normal;text-decoration-color:#000000;text-decoration-line:none;text-decoration-style:solid;text-indent:0;text-transform:none;white-space:normal"/>
  <path d="m519.44 921.95c-15.1 0.33864-30.008 6.0242-41.715 16.773l-13.419-14.921-5.2674 23.925-5.2674 23.922 24.347-2.7173 24.343-2.7141-14.629-16.265c7.6811-7.0981 17.147-11.284 26.958-12.516v4.1258c0 1.2669 1.0195 2.2864 2.2864 2.2864h4.5117c1.2669 0 2.2896-1.0195 2.2896-2.2864v-4.4249c8.1491 0.51008 16.239 3.0549 23.469 7.7532 1.6928 1.1001 3.2963 2.2918 4.8108 3.5631l-4.1998 4.8172c-0.83263 0.95488-0.73298 2.396 0.2219 3.2286l3.399 2.9649c0.95489 0.83265 2.396 0.73302 3.2286-0.2219l3.7432-4.2962c6.4225 7.8697 10.186 17.545 10.831 27.617h-5.351c-1.2669 0-2.2864 1.0227-2.2864 2.2896v4.5085c0 1.267 1.0195 2.2896 2.2864 2.2896h5.0745c-0.41194 3.3037-1.1515 6.6054-2.2703 9.8563-1.8084 5.2546-4.445 10.03-7.7243 14.214l-4.3059-4.5471c-0.8712-0.9199-2.312-0.958-3.2318-0.087l-3.2769 3.1032c-0.91986 0.8712-0.95801 2.312-0.0868 3.2318l4.6243 4.8816c-6.9718 6.0922-15.616 10.132-24.958 11.496l0.0158-3.5405c5e-3 -1.2669-1.0098-2.2939-2.2768-2.2993l-4.5117-0.019c-1.2669 0-2.2906 1.013-2.2961 2.28l-0.0158 4.0518c-0.71774-0.031-1.4361-0.069-2.1578-0.1319-22.279-1.9351-40.305-18.715-43.828-40.798l-14.928 2.3797c4.6027 28.857 28.331 50.946 57.443 53.475 29.112 2.5287 56.298-15.138 65.807-42.77 9.5095-27.632-1.0433-58.287-25.546-74.21-9.1885-5.9711-19.473-9.312-29.868-10.101-1.0828-0.082-2.1671-0.13716-3.2511-0.16403-1.0075-0.0251-2.0161-0.0258-3.0228-4e-3zm-1.8619 30.968c-1.0149 0-1.833 0.8181-1.833 1.833v26.488a6.2128 6.2128 0 0 0 -2.0806 4.6275 6.2128 6.2128 0 0 0 6.2129 6.2129 6.2128 6.2128 0 0 0 0.5917 -0.0353l19.282 17.584c0.70163 0.6398 1.7816 0.5891 2.4215-0.1126l2.8974-3.1772c0.63982-0.7016 0.5891-1.7816-0.11257-2.4214l-18.925-17.259a6.2128 6.2128 0 0 0 0.0578 -0.7911 6.2128 6.2128 0 0 0 -2.6144 -5.0584v-26.057c0-1.0149-0.81811-1.833-1.833-1.833h-4.0647z" color="#000000" color-rendering="auto" image-rendering="auto" shape-rendering="auto" solid-color="#000000" style="isolation:auto;mix-blend-mode:normal;text-decoration-color:#000000;text-decoration-line:none;text-decoration-style:solid;text-indent:0;text-transform:none;white-space:normal"/>
  <path d="m156.38 993.37c0 0.97445 0.90587 1.7623 2.0374 1.7623h55.449v37.038l75.993-51.459-75.993-51.467v37.038h-55.449c-1.1316 0-2.0374 0.78782-2.0374 1.7623z"/>
  <path d="m745.09 995.04c0 0.97444-0.90587 1.7623-2.0374 1.7623h-55.449v37.038l-75.993-51.459 75.993-51.467v37.038h55.449c1.1316 0 2.0374 0.78782 2.0374 1.7623z"/>
  <path d="m821.65 919.47a25.38 25.38 0 0 0 -25.38 25.38 25.38 25.38 0 0 0 0.0191 0.49661 25.38 25.38 0 0 0 -24.586 25.35 25.38 25.38 0 0 0 4.0989 13.821c-0.73961 2.0198-1.1651 4.1928-1.1651 6.475 0 10.396 8.3684 18.764 18.764 18.764h9.0497l35.225-44.79 35.221 44.79h16.197c10.396 0 18.768-8.3684 18.768-18.764 0-8.3098-5.3569-15.309-12.812-17.79a24.515 24.515 0 0 0 0.58063 -5.2335 24.515 24.515 0 0 0 -24.513 -24.517 24.515 24.515 0 0 0 -11.219 2.7237 22.162 22.162 0 0 0 -14.027 -8.8281 25.38 25.38 0 0 0 -24.219 -17.878zm16.159 61.633-27.252 36.18h19.612v26.404c0 0.5388 0.41615 0.9665 0.93211 0.9665h13.408c0.51598 0 0.9321-0.4277 0.9321-0.9665v-26.404h19.612l-27.245-36.18z"/>
  <path d="m985.04 912.77a26.167 26.167 0 0 0 -26.167 26.167 26.167 26.167 0 0 0 0.0198 0.512 26.167 26.167 0 0 0 -25.348 26.135 26.167 26.167 0 0 0 4.2259 14.249c-0.76251 2.0824-1.2012 4.3227-1.2012 6.6756 0 10.718 8.6277 19.345 19.345 19.345h18.857v-22.693c0-0.28799 0.23188-0.51986 0.51988-0.51986h54.641c0.288 0 0.5199 0.23187 0.5199 0.51986v22.693h24.119c10.718 0 19.349-8.6277 19.349-19.345 0-8.5672-5.5229-15.784-13.209-18.341a25.274 25.274 0 0 0 0.5986 -5.3956 25.274 25.274 0 0 0 -25.273 -25.277 25.274 25.274 0 0 0 -11.567 2.808 22.848 22.848 0 0 0 -14.462 -9.1016 26.167 26.167 0 0 0 -24.969 -18.432zm10.811 76.842c-0.53197 0-0.96491 0.42504-0.96491 0.95702v26.068h-20.216l28.089 35.725 28.096-35.725h-20.22v-26.068c0-0.53198-0.429-0.95702-0.961-0.95702h-13.824z"/>
  <path transform="matrix(.9375 0 0 .9375 -5.722e-5 59.563)" d="m1153.6 258.99s-0.0118 0.00461-0.0118 0.00781c-0.2997 5.0691-1.3824 21.089-1.4843 22.596h132.91l-2.6445-13.582-88.045-0.17187-11.998-8.8496h-28.73zm-5.0098 29.068l1.6992 90.191 138.5 0.18164 2.0332-90.373h-142.23z"/>
  <path d="m1145.9 485.57c-36.151 0-65.595 29.444-65.595 65.595s29.444 65.598 65.595 65.598 65.595-29.447 65.595-65.598-29.444-65.595-65.595-65.595zm0 12.947c29.152 0 52.645 23.496 52.645 52.649s-23.493 52.645-52.645 52.645-52.645-23.493-52.645-52.645 23.493-52.649 52.645-52.649zm-6.6985 17.938c-1.7914 0-3.2318 1.4436-3.2318 3.235v41.101c0 0.90569 0.3687 1.7198 0.9647 2.3057 0.5259 0.66822 1.3309 1.1062 2.2511 1.1062h36.566c1.5938 0 2.8781-1.2843 2.8781-2.8781v-5.0552c0-1.5938-1.2843-2.8781-2.8781-2.8781h-28.974v-33.701c0-1.7914-1.4404-3.235-3.2319-3.235h-4.3445z" color="#000000" color-rendering="auto" image-rendering="auto" shape-rendering="auto" solid-color="#000000" style="block-progression:tb;isolation:auto;mix-blend-mode:normal;text-decoration-color:#000000;text-decoration-line:none;text-decoration-style:solid;text-indent:0;text-transform:none;white-space:normal"/>
  <path d="m1172.4 701.55c-6.7597 0.0576-14.288 2.7896-21.533 10.988-8.5785 9.7075-31.444-1.4535-31.444-1.4535v51.073s25.922 11.099 33.708 0.28941c17.108-23.752 42.278-0.28941 42.278-0.28941v-51.073s-10.104-9.6447-23.009-9.5348zm-64.624 1.9777c-1.4112 0-2.5469 1.1357-2.5469 2.5469v112.31c0 1.4112 1.1357 2.5501 2.5469 2.5501h4.785c1.4112 0 2.5469-1.1389 2.5469-2.5501v-112.31c0-1.4112-1.1357-2.5469-2.5469-2.5469h-4.785z"/>
  <path d="m1169.6 933.63c-6.5625 0.34668-13.811 3.2045-20.465 10.734-1.4296 1.6177-3.485 2.4375-6.1228 2.6884-2.6379 0.25088-5.7431-0.13822-8.6633-0.81681-5.8405-1.357-10.84-3.7817-10.84-3.7817l-3.5791-1.7494v52.053l1.5114 0.64635s6.0749 2.6183 13.175 3.9747c3.55 0.67821 7.3812 1.0684 11.004 0.57561 3.6231-0.49275 7.1905-1.9642 9.4608-5.1163 3.6053-5.0053 7.3847-7.2917 11.127-8.1873 3.7418-0.89562 7.5706-0.35509 11.094 0.8554 7.0475 2.421 12.493 7.4348 12.493 7.4348l4.1902 3.9007v-53.214l-0.775-0.73641s-5.669-5.4706-14.043-8.0491c-2.0936-0.64458-4.3858-1.0878-6.8013-1.2123-0.9059-0.0467-1.8281-0.0495-2.7656 0zm-61.874 1.3217c-1.4112 0-2.5469 1.1357-2.5469 2.5469v112.31c0 1.4112 1.1357 2.5469 2.5469 2.5469h4.785c1.4112 0 2.5469-1.1357 2.5469-2.5469v-112.31c0-1.4112-1.1357-2.5469-2.5469-2.5469h-4.785zm62.141 3.5116c0.7551-0.0263 1.5017-0.0123 2.235 0.0418 1.9553 0.14384 3.8282 0.55148 5.5986 1.0966 6.2751 1.9321 10.329 5.4256 11.303 6.2933v40.123c-2.5243-1.7501-6.0189-3.8182-10.088-5.216-4.1404-1.4223-8.9473-2.1687-13.87-0.99047s-9.8339 4.3264-14.005 10.117c-1.2686 1.7612-3.3048 2.7147-6.0906 3.0936-2.7859 0.37891-6.174 0.0857-9.3997-0.53059-5.1206-0.97826-8.9441-2.4241-10.644-3.0968v-40.93c2.1565 0.8467 5.093 1.872 8.316 2.6208 3.2506 0.75529 6.8057 1.2513 10.258 0.92294 3.4525-0.3284 6.9172-1.5531 9.3868-4.3477 5.9197-6.6987 11.713-9.0121 16.998-9.1971z"/>
  <path d="m391.46 69.773c-0.81502 0-1.4739 0.65244-1.4739 1.4675v39.937h-30.978l43.039 54.734 43.046-54.734h-30.978v-39.937c0-0.81502-0.6589-1.4675-1.4739-1.4675z"/>
  <path d="m523.13 73.826c-0.93242 0-1.6863 0.75388-1.6863 1.6863v32.535h-31.975c-1.2432 0-2.2462 1.003-2.2462 2.2462v18.517c0 1.2432 1.003 2.2398 2.2462 2.2398h31.975v32.542c0 0.93238 0.75388 1.6798 1.6863 1.6798h19.637c0.93242 0 1.6799-0.74746 1.6799-1.6798v-32.542h31.975c1.2432 0 2.2462-0.99661 2.2462-2.2398v-18.517c0-1.2432-1.003-2.2462-2.2462-2.2462h-31.975v-32.535c0-0.93242-0.74745-1.6863-1.6799-1.6863z"/>
  <path d="m292.98 158.33c0.815 0 1.4739-0.65246 1.4739-1.4675v-39.937h30.978l-43.039-54.734-43.046 54.734h30.978v39.937c0 0.815 0.6589 1.4675 1.4739 1.4675z"/>
  <path d="m637.75 80.871c0.65929-0.65929 1.7209-0.66384 2.3802-4e-3l23.01 23.01 22.61-22.61c0.87906-0.87907 2.2976-0.87903 3.1767 3e-5l13.089 13.089c0.87911 0.8791 0.87907 2.2976 0 3.1767l-22.61 22.61 23.006 23.006c0.65932 0.65933 0.65929 1.7255 0 2.3848l-13.881 13.881c-0.65931 0.6593-1.7255 0.6593-2.3848 0l-23.006-23.006-22.61 22.61c-0.87907 0.87906-2.2975 0.8791-3.1766 0l-13.089-13.089c-0.87907-0.87907-0.8791-2.2976-4e-5 -3.1767l22.61-22.61-23.01-23.01c-0.65931-0.65929-0.65476-1.721 4e-3 -2.3802l13.881-13.881z"/>
  <rect x="746.1" y="108.47" width="87.533" height="23.343" ry="3.0542"/>
  <path d="m911.6 59.563c-23.306 0-42.331 19.025-42.331 42.331s19.025 42.325 42.331 42.325c7.9114 0 15.303-2.2296 21.652-6.0372l28.538 26.846c2.221 2.0892 5.6922 1.9829 7.7814-0.23826l1.1264-1.2036c2.0892-2.221 1.9828-5.6922-0.23825-7.7814l-27.373-25.745c6.7154-7.4965 10.845-17.355 10.845-28.165 0-23.306-19.025-42.331-42.331-42.331zm0 12.28c16.668 0 30.051 13.383 30.051 30.051s-13.383 30.044-30.051 30.044-30.044-13.377-30.044-30.044 13.377-30.051 30.044-30.051z" color="#000000" color-rendering="auto" image-rendering="auto" shape-rendering="auto" solid-color="#000000" style="isolation:auto;mix-blend-mode:normal;text-decoration-color:#000000;text-decoration-line:none;text-decoration-style:solid;text-indent:0;text-transform:none;white-space:normal"/>
 </g>
</svg>
