<svg height='300px' width='300px'  fill="#000000" xmlns="http://www.w3.org/2000/svg" data-name="Layer 1" viewBox="0 0 100 100" x="0px" y="0px"><title>96all</title><path d="M50.93,34.11a9.64,9.64,0,1,0-9.64-9.64A9.65,9.65,0,0,0,50.93,34.11Zm0-15.28a5.64,5.64,0,1,1-5.64,5.64A5.65,5.65,0,0,1,50.93,18.82Z"></path><path d="M89.09,54V7.81a2,2,0,0,0-2-2H4.27a2,2,0,0,0-2,2V72.35a2,2,0,0,0,2,2H53A22.45,22.45,0,1,0,89.09,54ZM6.27,9.81H85.09V51.55a22.26,22.26,0,0,0-9.82-2.27c-.56,0-1.11,0-1.66.07L61.89,38a2,2,0,0,0-2.64-.12L50.37,45,37.48,30.87A2,2,0,0,0,36,30.22a2.1,2.1,0,0,0-1.47.62L11.05,55.57a2,2,0,0,0,1.45,3.38H56.84a22.31,22.31,0,0,0-4,11.41H6.27ZM59.84,55.45,53.07,48l7.31-5.85,8.4,8.1A22.46,22.46,0,0,0,59.84,55.45ZM54,54.94H17.16L36,35.15Zm21.3,35.25A18.46,18.46,0,1,1,93.73,71.74,18.4,18.4,0,0,1,75.27,90.19Z"></path><polygon points="87.55 69.74 77.27 69.74 77.27 59.47 73.27 59.47 73.27 69.74 63 69.74 63 73.74 73.27 73.74 73.27 84.01 77.27 84.01 77.27 73.74 87.55 73.74 87.55 69.74"></polygon></svg>